<svg width="120" height="99" viewBox="0 0 120 99" fill="none" xmlns="http://www.w3.org/2000/svg">
<g clip-path="url(#clip0_37_943)">
<path d="M4.32619 62.1401C1.52437 59.4496 0.0760904 55.8704 0.00284641 52.2668C-0.069421 48.6642 1.23432 45.0284 3.92384 42.2265C6.61141 39.4267 10.1906 37.9774 13.7932 37.9051C17.3978 37.8309 21.0317 39.1308 23.8355 41.8232L48.0421 65.1158L96.2357 3.89552L97.9623 5.21294L96.2337 3.88966C96.3714 3.71095 96.5277 3.5586 96.7015 3.43457C99.5688 0.951115 103.167 -0.170006 106.685 0.0214046V0.0174982L106.857 0.0331236C110.395 0.267504 113.851 1.83981 116.403 4.68753C118.999 7.58311 120.176 11.2609 119.979 14.8557H119.983L119.968 15.0276C119.737 18.5023 118.219 21.8979 115.467 24.4341L57.6293 94.8362L57.6332 94.8401C57.5248 94.9778 57.4027 95.096 57.2699 95.1995C54.5618 97.5775 51.1418 98.7435 47.7413 98.6849C44.3125 98.6254 40.8906 97.3216 38.2284 94.763L4.32619 62.1401Z" fill="white"/>
</g>
<defs>
<clipPath id="clip0_37_943">
<rect width="120" height="98.686" fill="white"/>
</clipPath>
</defs>
</svg>
